# xmcd
#
# Track frame offsets:
#	150
#	15199
#	32096
#	51549
#	71339
#	89971
#	107065
#	124340
#	141008
#	167004
#	182453
#
# Disc length: 2689 seconds
#
# Revision: 1
# Processed by: cddbd v1.5.1PL2 Copyright (c) Steve Scherf et al.
# Submitted via: audiograbber 1.83.01
#
DISCID=940a7f0b
DTITLE=Philipp Fankhauser - Watching From The Safe Side
DYEAR=2006
DGENRE=Blues
TTITLE0=It´ Over Now Baby
TTITLE1=Watching From The Safe Side
TTITLE2=Too Little Too Late
TTITLE3=Blues Ain´t Nothin
TTITLE4=Time Stands Still
TTITLE5=If You Ain´t Been To Houston
TTITLE6=The Blues Don´t Like A Crowd
TTITLE7=Sunday Morning
TTITLE8=Thomas and Rodney
TTITLE9=Love Song
TTITLE10=Wish You Well
EXTD=
EXTT0=
EXTT1=
EXTT2=
EXTT3=
EXTT4=
EXTT5=
EXTT6=
EXTT7=
EXTT8=
EXTT9=
EXTT10=
PLAYORDER=
